<?xml version="1.0" encoding="UTF-8"?>
<svg width="1200pt" height="1200pt" version="1.1" viewBox="0 0 1200 1200" xmlns="http://www.w3.org/2000/svg">
 <path d="m1133.1 403.46c-3.2969-5.9883-9.5938-9.7148-16.434-9.7148h-160.5c-10.355 0-18.75 8.3945-18.75 18.75v75h-37.5v-112.5c0-10.355-8.3945-18.75-18.75-18.75h-562.5c-10.355 0-18.75 8.3945-18.75 18.75v150h-56.25c-10.355 0-18.75 8.3945-18.75 18.75v0.80469c-126.01 8.1719-187.5 99.992-187.5 280.45 0 10.363 8.3945 18.75 18.75 18.75 10.355 0 18.75-8.3867 18.75-18.75 0-199.02 76.52-238.18 150-243.12v75.195c-52.875 4.5625-112.5 32.949-112.5 167.93 0 10.363 8.3945 18.75 18.75 18.75 10.355 0 18.75-8.3867 18.75-18.75 0-104.6 36.109-126.38 75.176-130.39 0.47266 9.9414 8.5234 17.887 18.57 17.887h56.25v112.5c0 10.363 8.3945 18.75 18.75 18.75h562.5c10.355 0 18.75-8.3867 18.75-18.75v-112.5h37.5v75c0 10.363 8.3945 18.75 18.75 18.75h160.5c7.1328 0 13.641-4.0469 16.801-10.438 39.105-78.953 38.875-320.96-0.36328-392.35zm-439.44-9.7148v75h-37.5v-75zm-131.25 0v75h-37.5v-75zm-131.25 0v75h-37.5v-75zm-168.75 281.25v-112.5h37.5v112.5zm75 18.75v-300h18.75v93.75c0 10.355 8.3945 18.75 18.75 18.75h75c10.355 0 18.75-8.3945 18.75-18.75v-93.75h18.75v93.75c0 10.355 8.3945 18.75 18.75 18.75h75c10.355 0 18.75-8.3945 18.75-18.75v-93.75h18.75v93.75c0 10.355 8.3945 18.75 18.75 18.75h75c10.355 0 18.75-8.3945 18.75-18.75v-93.75h18.75v93.75c0 7.1055 4.0117 13.594 10.363 16.773l27.137 13.566v164.32l-27.137 13.566c-6.3516 3.1875-10.363 9.668-10.363 16.773v93.75h-412.5zm525 112.5h-75v-82.16l27.137-13.566c6.3555-3.1875 10.363-9.668 10.363-16.773v-187.5c0-7.1055-4.0117-13.594-10.363-16.773l-27.137-13.566v-82.16h75zm37.5-131.25v-150h37.5v150zm75 18.75v-262.5h43.98c41.371 95.926 41.371 241.57 0 337.5h-43.98zm129.38 75h-45c36.891-99.125 36.891-238.38 0-337.5h45.43c27.039 68.438 26.809 263.67-0.42969 337.5z"/>
 <path d="m449.88 600c-41.355 0-75 33.637-75 75s33.645 75 75 75 75-33.637 75-75-33.645-75-75-75zm0 112.5c-20.684 0-37.5-16.828-37.5-37.5s16.816-37.5 37.5-37.5 37.5 16.828 37.5 37.5-16.816 37.5-37.5 37.5z"/>
</svg>
